# xmcd
#
# Track frame offsets:
#	150
#	15369
#	30529
#	47622
#	65175
#	84849
#	99286
#	117047
#	133180
#	148385
#	159825
#	177267
#	194052
#	202541
#	219411
#	234720
#	250363
#	262663
#	279755
#
# Disc length: 3950 seconds
#
# Revision: 1
# Processed by: cddbd v1.5.2PL0 Copyright (c) Steve Scherf et al.
# Submitted via: audiograbber 1.83.01
#
DISCID=fc0f6c13
DTITLE=Various Artist - Gympie Music Muster 2013 [Disc 1]
DYEAR=2013
DGENRE=Country
TTITLE0=Adam Brand - I Was Here
TTITLE1=Catherine Britt - Always Never Enough
TTITLE2=Troy Cassar-Daley - Country Is
TTITLE3=McAlister Kemp - That Kind O' Love
TTITLE4=The Mavericks - Back In Your Arms Again
TTITLE5=Morgan Evans - Sweet Home To You
TTITLE6=Amber Lawrence - Try
TTITLE7=Chelsea Basham - I Make My Own Sunshine
TTITLE8=Lou Bradley and Bill Chambers - One Of Those Nights
TTITLE9=Kristy Cox - If I Keep On Loving You
TTITLE10=Damian Howard - One Step Forward
TTITLE11=We The Ghosts - Holdin' On
TTITLE12=Tami Neilson - Hey Mama
TTITLE13=Marce Howard and Rose Bygrave - Universe
TTITLE14=The Bostocks - Another Lifetime
TTITLE15=Kaylens Rain - Don't Even Go There
TTITLE16=Jasmine Rae - Fixer Upper
TTITLE17=Simply Bushed - Cangai Bridge
TTITLE18=Graham Rodger - Heart Of The Kimberley
EXTD=
EXTT0=
EXTT1=
EXTT2=
EXTT3=
EXTT4=
EXTT5=
EXTT6=
EXTT7=
EXTT8=
EXTT9=
EXTT10=
EXTT11=
EXTT12=
EXTT13=
EXTT14=
EXTT15=
EXTT16=
EXTT17=
EXTT18=
PLAYORDER=
